<svg width="48" height="48" viewBox="0 0 48 48" fill="none" xmlns="http://www.w3.org/2000/svg">
<path d="M0 24C0 10.7452 10.7452 0 24 0C37.2548 0 48 10.7452 48 24C48 37.2548 37.2548 48 24 48C10.7452 48 0 37.2548 0 24Z" fill="white"/>
<path d="M23.5973 28.4442C22.2064 28.1834 21.1687 27.899 20.3336 27.6116C17.325 26.5763 14.8095 28.6259 15.2108 31.7823C15.425 33.4671 16.4959 34.949 18.0972 35.5152C22.4132 37.0411 26.0743 37.1754 31.1083 35.7802C33.0291 35.2478 34.35 33.5253 34.5525 31.5424L35.0335 26.8335C32.4564 28.4442 28.7517 29.4107 23.5973 28.4442Z" fill="#29150F"/>
<path d="M15.5436 28.7664C14.5772 30.055 34.5884 33.9207 34.5884 24.5784C34.5884 24.5784 33.2617 28.6053 27.302 26.3502C21.3423 24.0952 16.5101 27.4777 15.5436 28.7664Z" fill="#A86B4E"/>
<path d="M15.5436 28.7665C14.5772 30.0551 32.2953 34.8872 34.8725 25.8671C34.8725 25.8671 31.651 29.7328 25.6913 27.4778C19.7315 25.2228 16.51 27.4779 15.5436 28.7665Z" fill="#854836"/>
<path fill-rule="evenodd" clip-rule="evenodd" d="M20.461 18.6815C17.2758 18.3035 14.5069 20.9015 14.9302 23.9771L16.2002 33.2062C16.2584 33.6289 16.5313 33.9825 16.9123 34.1364C19.9112 35.347 22.3179 35.9324 24.7061 35.9455C27.0952 35.9585 29.5175 35.3991 32.5486 34.2415C33.1133 34.0258 33.5118 33.5015 33.5814 32.8814L34.5671 24.092C34.906 21.0704 32.1811 18.554 29.0327 18.8323C26.1327 19.0886 23.441 19.0352 20.461 18.6815ZM13.6536 24.1528C13.1015 20.141 16.6936 16.9367 20.6128 17.4019C23.5103 17.7457 26.1129 17.7968 28.9193 17.5487C32.7571 17.2095 36.2904 20.2874 35.8477 24.2356L34.8619 33.025C34.7568 33.9623 34.2159 34.7989 33.399 35.2614C33.2357 36.6894 32.2446 37.9324 30.8006 38.3085C26.3809 39.4597 23.1577 39.4613 18.7574 38.3328C17.2423 37.9443 16.2065 36.6352 16.048 35.1361C15.4339 34.75 15.0232 34.1052 14.9237 33.3819L13.6536 24.1528ZM17.5313 35.7579C17.8195 36.4056 18.3759 36.9047 19.0775 37.0846C23.2665 38.159 26.2678 38.1575 30.4758 37.0615C31.1218 36.8932 31.6373 36.4385 31.9133 35.847C29.276 36.772 26.9947 37.2466 24.6991 37.234C22.4073 37.2215 20.1412 36.7238 17.5313 35.7579Z" fill="black"/>
<path d="M21.9866 22.9677C21.9866 23.8573 21.2654 24.5785 20.3758 24.5785C19.4862 24.5785 18.7651 23.8573 18.7651 22.9677C18.7651 22.0781 19.4862 21.357 20.3758 21.357C21.2654 21.357 21.9866 22.0781 21.9866 22.9677Z" fill="#18181B"/>
<path d="M30.3624 22.9677C30.3624 23.8573 29.6413 24.5785 28.7517 24.5785C27.8621 24.5785 27.1409 23.8573 27.1409 22.9677C27.1409 22.0781 27.8621 21.357 28.7517 21.357C29.6413 21.357 30.3624 22.0781 30.3624 22.9677Z" fill="#18181B"/>
<rect x="24.8859" y="9.4375" width="2.25503" height="5.15436" rx="0.644296" fill="#A4A4A4"/>
<path d="M13.7773 17.651L13.6569 18.7106C13.6056 19.162 14.025 19.5233 14.4638 19.4057L29.6676 15.3318L29.1423 13.543C28.9367 12.8426 28.1909 12.4526 27.4984 12.6835L14.2137 17.1126C13.9759 17.1919 13.8056 17.4019 13.7773 17.651Z" fill="#2D2B2B"/>
<path d="M30.2767 17.9491L15.15 22.0023C14.6441 22.1378 14.1065 21.9537 13.79 21.5365L13.0923 20.6171C12.5708 19.9299 12.9121 18.9333 13.7454 18.71L30.1521 14.3138C30.6831 14.1716 31.2058 14.5677 31.2125 15.1173L31.2316 16.6887C31.2388 17.2777 30.8456 17.7966 30.2767 17.9491Z" fill="black"/>
</svg>
